<?xml version="1.0" encoding="UTF-8"?>
<svg xmlns="http://www.w3.org/2000/svg" viewBox="0 0 415 184">
  <defs>
    <style>
      .cls-1 {
        fill: #ed8434;
      }

      .cls-2 {
        fill: #458e85;
      }

      .cls-3 {
        fill: #fff;
      }

      .cls-4 {
        fill: #202020;
      }
    </style>
  </defs>
  <g id="BG">
    <rect class="cls-4" x="0" width="415" height="184"/>
  </g>
  <g id="_01" data-name="01">
    <g>
      <g>
        <path class="cls-3" d="M61.21,72.76v8.46h6.11v5.79h-6.11v19.42c0,1.33.26,2.29.78,2.88.52.59,1.46.88,2.8.88.9,0,1.8-.11,2.72-.32v6.04c-1.77.49-3.48.74-5.12.74-5.97,0-8.96-3.31-8.96-9.94v-19.71h-5.69v-5.79h5.69v-8.46h7.77Z"/>
        <path class="cls-3" d="M85.06,116.65c-4.93,0-8.92-1.56-11.98-4.68-3.06-3.12-4.59-7.27-4.59-12.46v-.96c0-3.47.67-6.58,2-9.31,1.33-2.73,3.2-4.86,5.61-6.38,2.41-1.52,5.1-2.28,8.06-2.28,4.71,0,8.35,1.51,10.92,4.53,2.57,3.02,3.85,7.3,3.85,12.83v3.15h-22.61c.23,2.87,1.19,5.14,2.86,6.82,1.67,1.67,3.78,2.51,6.32,2.51,3.56,0,6.46-1.45,8.7-4.34l4.19,4.02c-1.39,2.08-3.24,3.69-5.55,4.84-2.31,1.15-4.91,1.72-7.79,1.72ZM84.14,86.84c-2.13,0-3.85.75-5.17,2.25-1.31,1.5-2.15,3.59-2.51,6.27h14.81v-.58c-.17-2.61-.86-4.59-2.08-5.93-1.22-1.34-2.9-2.01-5.05-2.01Z"/>
        <path class="cls-3" d="M116.87,110.41c1.94,0,3.55-.57,4.83-1.7s1.96-2.54,2.05-4.21h7.32c-.09,2.17-.76,4.19-2.02,6.06-1.26,1.88-2.96,3.36-5.12,4.45-2.15,1.09-4.48,1.64-6.97,1.64-4.84,0-8.68-1.58-11.51-4.73-2.84-3.15-4.25-7.5-4.25-13.05v-.8c0-5.29,1.41-9.53,4.22-12.72,2.81-3.18,6.65-4.77,11.51-4.77,4.11,0,7.47,1.21,10.06,3.62,2.59,2.41,3.95,5.58,4.08,9.5h-7.32c-.09-1.99-.76-3.63-2.03-4.92-1.27-1.29-2.88-1.93-4.85-1.93-2.52,0-4.46.92-5.82,2.75-1.36,1.83-2.06,4.61-2.08,8.34v1.25c0,3.77.68,6.59,2.03,8.44,1.35,1.85,3.31,2.78,5.87,2.78Z"/>
        <path class="cls-3" d="M142.42,85.01c2.54-2.96,5.75-4.44,9.63-4.44,7.38,0,11.12,4.23,11.23,12.7v22.73h-7.77v-22.44c0-2.4-.52-4.1-1.55-5.1-1.03-1-2.55-1.5-4.56-1.5-3.11,0-5.44,1.39-6.97,4.18v24.86h-7.77v-49.39h7.77v18.39Z"/>
        <path class="cls-3" d="M178.39,72.76v8.46h6.11v5.79h-6.11v19.42c0,1.33.26,2.29.78,2.88.52.59,1.46.88,2.8.88.9,0,1.8-.11,2.72-.32v6.04c-1.77.49-3.48.74-5.12.74-5.97,0-8.96-3.31-8.96-9.94v-19.71h-5.69v-5.79h5.69v-8.46h7.77Z"/>
        <path class="cls-3" d="M185.55,98.29c0-3.41.67-6.48,2.01-9.21,1.34-2.73,3.23-4.83,5.66-6.3s5.22-2.2,8.38-2.2c4.67,0,8.46,1.51,11.37,4.53,2.91,3.02,4.48,7.03,4.72,12.03l.03,1.83c0,3.43-.66,6.5-1.97,9.2-1.31,2.7-3.19,4.79-5.63,6.27s-5.26,2.22-8.46,2.22c-4.88,0-8.79-1.63-11.72-4.9-2.93-3.27-4.4-7.63-4.4-13.07v-.39ZM193.32,98.96c0,3.58.74,6.38,2.21,8.41,1.47,2.03,3.52,3.04,6.14,3.04s4.66-1.03,6.12-3.09c1.46-2.06,2.19-5.07,2.19-9.04,0-3.52-.75-6.3-2.25-8.36-1.5-2.06-3.55-3.09-6.12-3.09s-4.55,1.01-6.04,3.04c-1.49,2.03-2.24,5.05-2.24,9.08Z"/>
        <path class="cls-3" d="M229.05,81.21l.22,4.02c2.56-3.11,5.92-4.66,10.07-4.66,7.21,0,10.87,4.15,11,12.44v22.99h-7.77v-22.54c0-2.21-.48-3.84-1.42-4.9-.95-1.06-2.5-1.59-4.65-1.59-3.13,0-5.47,1.43-7,4.28v24.76h-7.77v-34.79h7.32Z"/>
        <path class="cls-3" d="M255.49,72.18c0-1.2.38-2.2,1.14-2.99.76-.79,1.84-1.19,3.25-1.19s2.49.4,3.26,1.19c.77.79,1.15,1.79,1.15,2.99s-.38,2.16-1.15,2.94c-.77.78-1.85,1.17-3.26,1.17s-2.49-.39-3.25-1.17c-.76-.78-1.14-1.76-1.14-2.94ZM263.74,116h-7.77v-34.79h7.77v34.79Z"/>
        <path class="cls-3" d="M283.52,110.41c1.94,0,3.55-.57,4.83-1.7s1.96-2.54,2.05-4.21h7.32c-.09,2.17-.76,4.19-2.02,6.06-1.26,1.88-2.96,3.36-5.12,4.45-2.15,1.09-4.48,1.64-6.97,1.64-4.84,0-8.68-1.58-11.51-4.73-2.84-3.15-4.25-7.5-4.25-13.05v-.8c0-5.29,1.41-9.53,4.22-12.72,2.81-3.18,6.65-4.77,11.51-4.77,4.11,0,7.47,1.21,10.06,3.62,2.59,2.41,3.95,5.58,4.08,9.5h-7.32c-.09-1.99-.76-3.63-2.03-4.92-1.27-1.29-2.88-1.93-4.85-1.93-2.52,0-4.46.92-5.82,2.75-1.36,1.83-2.06,4.61-2.08,8.34v1.25c0,3.77.68,6.59,2.03,8.44,1.35,1.85,3.31,2.78,5.87,2.78Z"/>
      </g>
      <path class="cls-1" d="M344.96,53.88c-.01-1.68-.55-3.08-1.63-4.19-1.09-1.12-2.63-1.69-4.62-1.69s-3.53.56-4.6,1.69c-1.06,1.11-1.59,2.51-1.6,4.19h0v56.25h0s0,.03,0,.05c0,1.67.54,3.06,1.61,4.17,1.07,1.11,2.6,1.66,4.6,1.66s3.53-.55,4.62-1.66c1.09-1.11,1.63-2.5,1.63-4.17,0-.02,0-.03,0-.05h0v-56.25h0Z"/>
      <path class="cls-2" d="M366.98,73.87c-.01-1.68-.55-3.08-1.63-4.19-1.09-1.12-2.63-1.69-4.62-1.69s-3.53.56-4.6,1.69c-1.06,1.11-1.59,2.51-1.6,4.19h0v56.25h0s0,.03,0,.05c0,1.67.54,3.06,1.61,4.17,1.07,1.11,2.6,1.66,4.6,1.66s3.53-.55,4.62-1.66c1.09-1.11,1.63-2.5,1.63-4.17,0-.02,0-.03,0-.05h0v-56.25h0Z"/>
    </g>
  </g>
</svg>